<?xml version="1.0" encoding="utf-8"?>
<!DOCTYPE svg PUBLIC "-//W3C//DTD SVG 1.1//EN" "http://www.w3.org/Graphics/SVG/1.1/DTD/svg11.dtd">
<svg version="1.1" id="图形" xmlns="http://www.w3.org/2000/svg" xmlns:xlink="http://www.w3.org/1999/xlink" x="0px" y="0px" width="1024px" height="1024px" viewBox="0 0 1024 1024" enable-background="new 0 0 1024 1024" xml:space="preserve">
  <path fill="#ccc" d="M906.666667 321.333333c-3.754667 0-7.317333-0.768-10.666667-1.962667L896 321.333333 554.666667 321.333333 554.666667 662.666667l-1.962667 0C553.898667 666.016 554.666667 669.578667 554.666667 673.333333 554.666667 690.997333 540.330667 705.333333 522.666667 705.333333 504.981333 705.333333 490.666667 690.997333 490.666667 673.333333c0-3.754667 0.768-7.317333 1.962667-10.666667L490.666667 662.666667l0-341.333333L149.333333 321.333333l0-1.962667C145.984 320.565333 142.421333 321.333333 138.666667 321.333333 120.981333 321.333333 106.666667 306.997333 106.666667 289.333333S120.981333 257.333333 138.666667 257.333333c3.754667 0 7.317333 0.768 10.666667 1.962667L149.333333 257.333333l341.333333 0 0-341.333333 1.962667 0C491.434667-87.349333 490.666667-90.912 490.666667-94.666667c0-17.664 14.314667-32 32-32 17.664 0 32 14.336 32 32 0 3.754667-0.768 7.317333-1.962667 10.666667L554.666667-84 554.666667 257.333333l341.333333 0 0 1.962667C899.349333 258.101333 902.912 257.333333 906.666667 257.333333c17.664 0 32 14.336 32 32S924.330667 321.333333 906.666667 321.333333z" transform="translate(0, 812) scale(1, -1)"/>
</svg>
