<?xml version="1.0" encoding="utf-8"?>
<!DOCTYPE svg PUBLIC "-//W3C//DTD SVG 1.1//EN" "http://www.w3.org/Graphics/SVG/1.1/DTD/svg11.dtd">
<svg version="1.1" id="图形" xmlns="http://www.w3.org/2000/svg" xmlns:xlink="http://www.w3.org/1999/xlink" x="0px" y="0px" width="1024px" height="1024px" viewBox="0 0 1024 1024" enable-background="new 0 0 1024 1024" xml:space="preserve">
  <path fill="#FF6503" d="M512.777951 804.591378C233.187958 804.591378 6.538403 577.941823 6.538403 298.35183c0-279.591802 226.656792-506.248594 506.239548-506.248594 279.591802 0 506.248594 226.656792 506.248594 506.248594C1019.026544 577.941823 792.369753 804.591378 512.777951 804.591378L512.777951 804.591378zM597.97077 635.951604l-24.3987-478.242375-122.006163 0L427.165399 635.951604 597.97077 635.951604 597.97077 635.951604zM509.624537-69.559067c-53.452438 0-84.821936 38.562827-84.821936 84.843647 0 49.591633 36.0173 85.954488 85.983435 85.954488 51.124014 0 84.8147-36.362855 84.8147-85.954488C595.598926-33.196212 561.90824-69.559067 509.624537-69.559067L509.624537-69.559067zM509.21747-150.637795" transform="translate(0, 812) scale(1, -1)"/>
</svg>
